<svg width="24" height="16" viewBox="0 0 24 16" fill="none" xmlns="http://www.w3.org/2000/svg">
<path fill-rule="evenodd" clip-rule="evenodd" d="M0.600586 8.00001C0.600586 7.78405 0.686376 7.57693 0.839085 7.42422C0.991793 7.27152 1.19891 7.18572 1.41487 7.18572H20.6206L15.4955 2.06224C15.3426 1.90934 15.2567 1.70196 15.2567 1.48572C15.2567 1.26949 15.3426 1.06211 15.4955 0.90921C15.6484 0.756309 15.8558 0.67041 16.072 0.67041C16.2882 0.67041 16.4956 0.756309 16.6485 0.90921L23.1628 7.4235C23.2386 7.49914 23.2988 7.58899 23.3399 7.68792C23.3809 7.78685 23.402 7.8929 23.402 8.00001C23.402 8.10712 23.3809 8.21317 23.3399 8.3121C23.2988 8.41103 23.2386 8.50088 23.1628 8.57652L16.6485 15.0908C16.4956 15.2437 16.2882 15.3296 16.072 15.3296C15.8558 15.3296 15.6484 15.2437 15.4955 15.0908C15.3426 14.9379 15.2567 14.7305 15.2567 14.5143C15.2567 14.2981 15.3426 14.0907 15.4955 13.9378L20.6206 8.81429H1.41487C1.19891 8.81429 0.991793 8.72851 0.839085 8.5758C0.686376 8.42309 0.600586 8.21597 0.600586 8.00001Z" fill="white"/>
</svg>
